<svg viewBox="0 0 37 77" xmlns="http://www.w3.org/2000/svg" fill-rule="evenodd" clip-rule="evenodd" stroke-linejoin="round" stroke-miterlimit="1.414"><path d="M4.75 0C2.081 0 0 2.097 0 4.719v67.062C0 74.403 2.081 76.5 4.75 76.5h26.969c2.669 0 4.781-2.097 4.781-4.719V4.719C36.5 2.097 34.388 0 31.719 0H4.75zm13.5 4.281c3.599 0 6.871 1.035 9.313 2.813 2.441 1.777 4.062 4.345 4.062 7.25 0 .685-.564 1.25-1.25 1.25h-2.062c-.624 4.975-4.899 8.844-10.063 8.844-5.163 0-9.439-3.869-10.062-8.844H6.094c-.686 0-1.25-.565-1.25-1.25 0-2.905 1.621-5.473 4.062-7.25 2.441-1.778 5.746-2.813 9.344-2.813zm0 2.5c-3.107 0-5.892.923-7.844 2.344-1.517 1.104-2.319 2.49-2.687 3.969h21.062c-.367-1.48-1.169-2.863-2.687-3.969-1.952-1.421-4.737-2.344-7.844-2.344zm-7.406 8.813c.616 3.58 3.605 6.344 7.406 6.344 3.802 0 6.79-2.764 7.406-6.344H10.844zm7.406 12.562c3.599 0 6.871 1.067 9.313 2.844 2.441 1.777 4.062 4.345 4.062 7.25 0 .686-.564 1.25-1.25 1.25h-2.062c-.624 4.975-4.899 8.844-10.063 8.844-5.163 0-9.439-3.869-10.062-8.844H6.094c-.686 0-1.25-.564-1.25-1.25 0-2.905 1.621-5.473 4.062-7.25 2.441-1.777 5.746-2.844 9.344-2.844zm0 2.5c-3.107 0-5.892.923-7.844 2.344-1.517 1.104-2.319 2.522-2.687 4h21.062c-.367-1.48-1.169-2.894-2.687-4-1.952-1.421-4.737-2.344-7.844-2.344zM10.844 39.5c.616 3.58 3.605 6.344 7.406 6.344 3.802 0 6.79-2.764 7.406-6.344H10.844zm7.406 12.563c3.599 0 6.871 1.035 9.313 2.812 2.441 1.777 4.062 4.377 4.062 7.281 0 .686-.564 1.25-1.25 1.25h-2.062c-.624 4.975-4.899 8.844-10.063 8.844-5.163 0-9.439-3.869-10.062-8.844H6.094c-.686 0-1.25-.564-1.25-1.25 0-2.904 1.621-5.504 4.062-7.281 2.441-1.777 5.746-2.812 9.344-2.812zm0 2.5c-3.107 0-5.892.922-7.844 2.343-1.524 1.11-2.354 2.514-2.718 4h21.093c-.365-1.485-1.164-2.891-2.687-4-1.952-1.421-4.737-2.343-7.844-2.343zm-7.406 8.843c.621 3.574 3.609 6.344 7.406 6.344 3.797 0 6.785-2.77 7.406-6.344H10.844z" fill-rule="nonzero"/></svg>