<?xml version="1.0" standalone="no"?>
<!DOCTYPE svg PUBLIC "-//W3C//DTD SVG 20010904//EN"
 "http://www.w3.org/TR/2001/REC-SVG-20010904/DTD/svg10.dtd">
<svg version="1.0" xmlns="http://www.w3.org/2000/svg"
 width="1400.000000pt" height="1400.000000pt" viewBox="0 0 1400.000000 1400.000000"
 preserveAspectRatio="xMidYMid meet">
<metadata>
Created by potrace 1.14, written by Peter Selinger 2001-2017
</metadata>
<g transform="translate(0.000000,1400.000000) scale(0.100000,-0.100000)"
fill="#000000" stroke="none">
<path d="M6835 12444 c-1092 -38 -2088 -373 -2986 -1005 l-126 -89 -1557 0
c-1376 0 -1556 -2 -1556 -15 0 -13 -24 -15 -155 -15 l-155 0 0 -143 0 -144
142 -22 c332 -53 582 -159 716 -306 104 -113 223 -320 448 -780 88 -181 209
-437 268 -567 l108 -237 -42 -108 c-178 -457 -279 -847 -340 -1312 -31 -238
-42 -420 -42 -701 0 -146 5 -330 11 -410 94 -1175 538 -2245 1304 -3140 200
-233 522 -540 777 -741 416 -327 918 -611 1410 -797 l154 -58 344 -777 345
-778 130 3 131 3 290 626 290 626 261 0 c274 1 455 12 696 43 886 116 1702
435 2439 953 491 347 960 816 1307 1307 575 816 902 1723 983 2730 16 187 16
633 0 820 -91 1118 -493 2136 -1183 2995 l-105 130 32 33 c45 49 189 162 276
217 163 105 386 195 578 235 l62 13 0 143 0 144 -265 0 c-229 0 -265 2 -265
15 0 13 -78 15 -641 15 l-642 0 -126 89 c-751 528 -1553 843 -2450 961 -249
33 -629 52 -866 44z"/>
</g>
</svg>
