<?xml version="1.0" encoding="UTF-8" standalone="no"?><!DOCTYPE svg PUBLIC "-//W3C//DTD SVG 1.1//EN" "http://www.w3.org/Graphics/SVG/1.1/DTD/svg11.dtd"><svg width="100%" height="100%" viewBox="0 0 37 77" version="1.1" xmlns="http://www.w3.org/2000/svg" xmlns:xlink="http://www.w3.org/1999/xlink" xml:space="preserve" xmlns:serif="http://www.serif.com/" style="fill-rule:evenodd;clip-rule:evenodd;stroke-linejoin:round;stroke-miterlimit:1.41421;"><path d="M4.75,0c-2.669,0 -4.75,2.097 -4.75,4.719l0,67.062c0,2.622 2.081,4.719 4.75,4.719l26.969,0c2.669,0 4.781,-2.097 4.781,-4.719l0,-67.062c0,-2.622 -2.112,-4.719 -4.781,-4.719l-26.969,0Zm13.5,4.281c3.599,0 6.871,1.035 9.313,2.813c2.441,1.777 4.062,4.345 4.062,7.25c0,0.685 -0.564,1.25 -1.25,1.25l-2.062,0c-0.624,4.975 -4.899,8.844 -10.063,8.844c-5.163,0 -9.439,-3.869 -10.062,-8.844l-2.094,0c-0.686,0 -1.25,-0.565 -1.25,-1.25c0,-2.905 1.621,-5.473 4.062,-7.25c2.441,-1.778 5.746,-2.813 9.344,-2.813Zm0,2.5c-3.107,0 -5.892,0.923 -7.844,2.344c-1.517,1.104 -2.319,2.49 -2.687,3.969l21.062,0c-0.367,-1.48 -1.169,-2.863 -2.687,-3.969c-1.952,-1.421 -4.737,-2.344 -7.844,-2.344Zm-7.406,8.813c0.616,3.58 3.605,6.344 7.406,6.344c3.802,0 6.79,-2.764 7.406,-6.344l-14.812,0Zm7.406,12.562c3.599,0 6.871,1.067 9.313,2.844c2.441,1.777 4.062,4.345 4.062,7.25c0,0.686 -0.564,1.25 -1.25,1.25l-2.062,0c-0.624,4.975 -4.899,8.844 -10.063,8.844c-5.163,0 -9.439,-3.869 -10.062,-8.844l-2.094,0c-0.686,0 -1.25,-0.564 -1.25,-1.25c0,-2.905 1.621,-5.473 4.062,-7.25c2.441,-1.777 5.746,-2.844 9.344,-2.844Zm0,2.5c-3.107,0 -5.892,0.923 -7.844,2.344c-1.517,1.104 -2.319,2.522 -2.687,4l21.062,0c-0.367,-1.48 -1.169,-2.894 -2.687,-4c-1.952,-1.421 -4.737,-2.344 -7.844,-2.344Zm-7.406,8.844c0.616,3.58 3.605,6.344 7.406,6.344c3.802,0 6.79,-2.764 7.406,-6.344l-14.812,0Zm7.406,12.563c3.599,0 6.871,1.035 9.313,2.812c2.441,1.777 4.062,4.377 4.062,7.281c0,0.686 -0.564,1.25 -1.25,1.25l-2.062,0c-0.624,4.975 -4.899,8.844 -10.063,8.844c-5.163,0 -9.439,-3.869 -10.062,-8.844l-2.094,0c-0.686,0 -1.25,-0.564 -1.25,-1.25c0,-2.904 1.621,-5.504 4.062,-7.281c2.441,-1.777 5.746,-2.812 9.344,-2.812Zm0,2.5c-3.107,0 -5.892,0.922 -7.844,2.343c-1.524,1.11 -2.354,2.514 -2.718,4l21.093,0c-0.365,-1.485 -1.164,-2.891 -2.687,-4c-1.952,-1.421 -4.737,-2.343 -7.844,-2.343Zm-7.406,8.843c0.621,3.574 3.609,6.344 7.406,6.344c3.797,0 6.785,-2.77 7.406,-6.344l-14.812,0Z" style="fill-rule:nonzero;fill:#FFFFFF;"/></svg>