<svg xmlns="http://www.w3.org/2000/svg" width="400" height="267"><path fill-opacity=".51" d="M0 57.5V115h68.5c67.833 0 68.5-.019 68.5-2 0-1.752.667-2 5.383-2 6.151 0 6.579-.62 6.603-9.55.014-5.055 1.226-7.45 3.771-7.45 1.104 0 1.082.392-.12 2.108-.82 1.17-1.308 3.505-1.097 5.25 1.485 12.304 1.477 12.639-.309 12.721-1.394.064-1.439.192-.231.662 2.684 1.044 3.936 3.671 3.968 8.326l.032 4.567-5.75-.429c-3.162-.236-5.9-.828-6.083-1.317-.472-1.257-4.167-1.108-4.167.168 0 .719-3.917.855-12.25.425-16.17-.833-18.209-1.028-19.586-1.879-.64-.396-1.164-.356-1.164.089.001.445-1.912.727-4.25.626-2.337-.1-11.378-.42-20.091-.711-8.713-.291-16.637-.782-17.609-1.09-.972-.309-2.305.086-2.961.877-.912 1.098-1.947 1.215-4.391.495-1.759-.519-5.898-.891-9.198-.827-3.3.064-10.003.076-14.897.027-5.245-.053-9.452.371-10.25 1.034-.744.617-1.353.73-1.353.25 0-.479-4.725-.872-10.5-.872H0v142.505l200.25-.253 200.25-.252.229-133.25L400.958 0H0v57.5m.468.5c0 31.625.127 44.562.281 28.75.155-15.813.155-41.688 0-57.5C.595 13.437.468 26.375.468 58M230.5 34.071c-1.1.434-1.645.82-1.211.859.434.038-.053.974-1.082 2.079-1.442 1.547-2.606 1.861-5.075 1.367-3.055-.611-3.125-.726-1.512-2.508 1.643-1.816 1.257-1.868-13.979-1.868-15.182 0-18.782.601-20.842 3.48-.386.539-.694 11.789-.686 25 .008 13.528.374 23.146.837 22.02.695-1.689.893-1.456 1.276 1.5l.454 3.5.16-3.636c.088-1.999.755-4.783 1.483-6.185 1.245-2.4 1.332-2.205 1.485 3.329.116 4.229-.289 6.33-1.442 7.483-.882.883-1.39 1.819-1.128 2.081.263.262 1.104-.284 1.869-1.214 1.107-1.343 1.393-6.741 1.393-26.274V40.5l34.75-.308 34.75-.308.125 5.558c.069 3.057.211 6.795.317 8.308.106 1.513.504 28.625.885 60.25s.963 66.613 1.293 77.75l.6 20.25h-17.579c-16.025 0-17.521.148-16.936 1.674.485 1.263.236 1.517-1.016 1.037-1.431-.549-3.689 1.688-3.689 3.655 0 1.008 40.048-.321 42.056-1.396 1.122-.6 2.405-2.077 2.851-3.281.447-1.204.66-10.739.474-21.189-1.701-95.714-2.37-136.457-2.375-144.639-.009-14.553.297-14.334-20.167-14.47-8.987-.059-17.239.247-18.339.68M188 39.393c0 .216.698.661 1.552.989.89.341 1.291.173.941-.393-.587-.951-2.493-1.406-2.493-.596m51.502 15.173c2.331 1.581 4.996 2.434 7.612 2.434 3.602 0 3.992-.236 3.706-2.25-.296-2.078-.877-2.264-7.613-2.434l-7.293-.185 3.588 2.435m-35.835-.899c-.367.366-.667 1.491-.667 2.5 0 1.407.767 1.833 3.3 1.833 1.815 0 3.906-.562 4.647-1.25 1.05-.975 1.193-.978.648-.011-.468.83-.189 1.042.847.645.851-.327 1.298-.996.993-1.489-.304-.492.261-.902 1.256-.91.995-.009 2.484-.452 3.309-.985 1.042-.673-.818-.974-6.083-.985-4.171-.008-7.884.285-8.25.652m.139 8.015c-.217.45-.15 2.499.149 4.553l.545 3.736 2.167-3.986c1.192-2.192 1.791-3.985 1.332-3.985-.46 0-1.502-.256-2.316-.568-.814-.313-1.659-.2-1.877.25m-52.262 6.246c-.315.51.262 1.193 1.283 1.517 3.744 1.188 6.642 5.454 6.533 9.616-.132 5.015.991 5.048 2.482.073 1.654-5.521 1.467-6.916-1.297-9.679-2.472-2.473-7.852-3.385-9.001-1.527M249 83.365c0 .751-.933 2.551-2.073 4-2.022 2.571-2.025 2.635-.121 2.635 1.44 0 2.217-1.047 2.966-4 .573-2.259.626-4 .122-4-.492 0-.894.614-.894 1.365m127 .028c0 .216.675.652 1.5.969.825.316 1.5.139 1.5-.393 0-.533-.675-.969-1.5-.969s-1.5.177-1.5.393M158.015 84.75c.009.412.452 1.425.985 2.25.784 1.213.972 1.069.985-.75.008-1.237-.435-2.25-.985-2.25s-.993.338-.985.75m-4.425 6.395c.65 1.052 5.411 1.144 5.408.105-.002-.412-1.338-.797-2.97-.855-1.632-.058-2.729.28-2.438.75m32.869 4.922c-.363.586-.445 1.281-.183 1.543s.743-.218 1.069-1.067c.676-1.762.1-2.072-.886-.476M386 99.441c0 .793.45 1.719 1 2.059.55.34 1-.309 1-1.441 0-1.132-.45-2.059-1-2.059s-1 .648-1 1.441m4 0c0 .857.45 1.559 1 1.559s1-.423 1-.941-.45-1.219-1-1.559c-.55-.34-1 .084-1 .941m-226.921 14.142c.048 1.165.285 1.402.604.605.289-.722.253-1.585-.079-1.917-.332-.332-.568.258-.525 1.312M140.275 116c-.083 1.104.466 2 1.225 2 .759 0 1.308-.896 1.225-2-.083-1.1-.634-2-1.225-2-.591 0-1.142.9-1.225 2m137.362 2.779c-.621 1.004.451 9.467 1.114 8.803.892-.892 1.09-8.562.235-9.09-.466-.289-1.073-.16-1.349.287M.474 195.5c0 39.6.124 55.654.276 35.676.151-19.978.151-52.378 0-72C.598 139.554.474 155.9.474 195.5m186.44-64.203c-.301 11.227-.392 17.703-.25 17.703.091 0 1.553-2.257 3.25-5.015 4.199-6.823 4.227-11.829.08-14.188L187 128.093l-.086 3.204M374 139.559c0 .857.457 1.276 1.016.931.559-.346.758-1.047.441-1.559-.857-1.387-1.457-1.129-1.457.628m5 .441c0 .55.45 1 1 1s1-.45 1-1-.45-1-1-1-1 .45-1 1m-157.25 18.662c.688.278 1.813.278 2.5 0 .688-.277.125-.504-1.25-.504s-1.937.227-1.25.504m8.063.021c.721.289 1.584.253 1.916-.079.332-.332-.258-.568-1.312-.525-1.165.048-1.402.285-.604.604m3.937-.021c.688.278 1.813.278 2.5 0 .688-.277.125-.504-1.25-.504s-1.937.227-1.25.504M217 162.725c0 .947.576 1.268 1.582.882.87-.334 2.67-.607 4-.607 4.108 0 2.661-1.492-1.582-1.632-2.935-.096-4 .265-4 1.357m16-.725c-1.094.707-.304.974 2.917.985 2.429.008 4.099-.302 3.712-.689-1.161-1.161-5.024-1.334-6.629-.296m3.5 4c-1.492.641-.751.877 2.917.93 2.704.038 4.599-.247 4.212-.634-1.09-1.09-4.911-1.248-7.129-.296m-22.5 1c0 1.131 3.056 1.131 7.5 0 2.564-.653 2.238-.781-2.25-.882-2.912-.065-5.25.327-5.25.882m12.762-.293c1.244.239 3.044.23 4-.02s-.062-.446-2.262-.435c-2.2.011-2.982.216-1.738.455m-41.335 1.411c-.464.751-.309.927.418.477.849-.524 1.186 2.814 1.27 12.596.063 7.32.048 14.209-.034 15.309-.091 1.208 1.249-.159 3.384-3.454 3.077-4.747 3.53-6.237 3.494-11.5-.038-5.593-.332-6.367-3.918-10.333-2.607-2.881-4.119-3.896-4.614-3.095m54.365.423c-.298.298-6.56.635-13.917.75-8.309.13-13.186.579-12.875 1.185.622 1.216 30.977 1.371 31.724.162.956-1.548-3.56-3.468-4.932-2.097m4.069 3.932c-.231.23-7.346.564-15.813.742-9.611.202-15.526.719-15.745 1.377-.222.666 1.861 1.018 5.673.959 3.313-.051 6.024.253 6.024.678 0 .424-2.448.771-5.441.771s-5.719.45-6.059 1c-.34.55-.141 1 .441 1s1.059.852 1.059 1.893c0 2.177 2.63 3.587 3.356 1.801.268-.657.522-.407.565.556.043.963-.398 1.75-.98 1.75s-.77.468-.416 1.041c.354.572 1.55.753 2.658.401 1.694-.538 1.909-.306 1.348 1.459-.622 1.96-.298 2.099 4.902 2.099 3.251 0 5.567-.44 5.567-1.059 0-.582-.418-.801-.928-.485-1.301.804-2.274-2.803-1.542-5.72.548-2.184.321-2.409-2.209-2.185-4.297.381-4.321.389-4.321 1.327 0 .482 1.238.772 2.75.643 2.413-.205 2.75.117 2.75 2.623 0 3.351-1.467 3.917-1.57.606-.067-2.147-.11-2.158-.93-.25-.6 1.396-.881 1.536-.93.463-.038-.846-1.021-1.609-2.183-1.697-2.577-.194-3.848-1.375-2.137-1.986 2.479-.886 1.182-2.095-1.75-1.633-1.744.275-3 .029-3-.587 0-.584 2.133-1.105 4.75-1.16 2.613-.054 6.887-.177 9.5-.271 2.613-.095 4.75.175 4.75.599 0 .425-.45.772-1 .772s-1 .582-1 1.294c0 .929 1.62 1.243 5.75 1.114 7.463-.234 7.474-.236 6.75-1.408-.34-.55-.282-1.543.128-2.208 1.65-2.668.992-8.079-.767-6.319M225 176c0 .55.675 1 1.5 1s1.5-.45 1.5-1-.675-1-1.5-1-1.5.45-1.5 1m4-.607c0 .216.675.652 1.5.969.825.316 1.5.139 1.5-.393 0-.533-.675-.969-1.5-.969s-1.5.177-1.5.393m8.815.471c1.217.772 6.185.386 6.185-.481 0-.21-1.687-.376-3.75-.368-2.39.01-3.273.318-2.435.849M235 178.983c0 .431 1.125.999 2.5 1.262 1.449.277 2.506.011 2.515-.634.009-.611.452-.436.985.389.841 1.301.971 1.281.985-.15.011-1.222-.893-1.65-3.485-1.65-1.925 0-3.5.353-3.5.783m130.079 1.6c.048 1.165.285 1.402.604.605.289-.722.253-1.585-.079-1.917-.332-.332-.568.258-.525 1.312m-134.784 1.743c.353.921.206 1.674-.326 1.674-2.156 0-.791 1.579 1.531 1.771 3.06.253 3.106-.165.326-2.945-1.585-1.585-1.999-1.72-1.531-.5m4.706 3.455c-.001.705-.676 1.541-1.501 1.857-2.084.8-1.886 2.259.25 1.85.963-.184 2.65-.384 3.75-.443 1.974-.107 1.974-.128.059-1.577-1.84-1.391-1.778-1.468 1.191-1.468 1.723 0 3.406-.443 3.74-.984.369-.596-.986-.892-3.44-.75-2.503.145-4.049.723-4.049 1.515m140.078 9.802c.048 1.165.285 1.402.604.605.289-.722.253-1.585-.079-1.917-.332-.332-.568.258-.525 1.312M357 196.5c0 .825.177 1.5.393 1.5.216 0 .652-.675.969-1.5.316-.825.139-1.5-.393-1.5-.533 0-.969.675-.969 1.5m22-.5c0 .55.45 1 1 1s1-.45 1-1-.45-1-1-1-1 .45-1 1m-169.814 18.717c-1.202 1.494-2.186 2.957-2.187 3.25 0 .293 2.46.472 5.468.399 4.813-.119 5.782-.508 8.089-3.25l2.622-3.116h-5.903c-5.219 0-6.156.315-8.089 2.717M394 228c0 .55.423 1 .941 1s1.219-.45 1.559-1c.34-.55-.084-1-.941-1s-1.559.45-1.559 1m3.015 6.25c.012 2.466.249 2.888.985 1.75 1.27-1.965 1.27-5 0-5-.55 0-.993 1.463-.985 3.25" fill="rgba(99, 102, 241)" fill-rule="evenodd"/><path fill-opacity=".104" d="M0 57v57l8.75.098c51.726.58 116.467.786 116.051.369-.289-.288-5.491-.569-11.56-.623-6.07-.055-11.644-.523-12.388-1.042-.878-.611 1.371-.795 6.397-.522l7.75.42v-4.35c0-3.2.397-4.35 1.5-4.35 1.083 0 1.5-1.111 1.5-4v-4h10v-8.201l4.405.35c2.432.194 4.156-.05 3.85-.545-.314-.509.699-.588 2.346-.184 2.752.676 2.798.636.899-.792l-2-1.504 2-1.636c1.983-1.623 1.981-1.633-.185-1.173-2.253.478-4.035-1.752-2.271-2.842.526-.325.956-.114.956.468 0 .582.848 1.059 1.883 1.059 2.438 0 3.522 3.73 1.26 4.331-1.512.402-1.511.446.013.553 1.145.08 1.495.734 1.134 2.116-.293 1.118-.031 2 .593 2 .615 0 1.117.671 1.117 1.492 0 .82.884 2.043 1.964 2.718 1.39.868 1.821 1.967 1.475 3.758-.422 2.179-.252 2.079 1.217-.718 1.234-2.35 2.402-3.25 4.217-3.25 2.309 0 2.367.104.724 1.305-1.485 1.087-1.71 2.387-1.337 7.75.247 3.545.792 7.458 1.211 8.695.588 1.734.383 2.25-.893 2.25-1.415 0-1.353.325.422 2.23 2.669 2.865 3.528 6.368 2.368 9.66-.828 2.351-1.443 2.618-6.203 2.694-4.27.067-5.571-.317-6.774-2-1.451-2.029-1.527-2.034-2.899-.2-1.26 1.685-2.704 1.865-13.7 1.705-9.755-.142-34.091-.875-42.792-1.29-.825-.039-6.9-.014-13.5.056s-12.675.107-13.5.082c-.825-.024-5.55.02-10.5.1-4.95.079-16.65-.048-26-.282-9.35-.234-17.562-.227-18.25.016-.931.33-1.25 4.624-1.25 16.836V160h8c4.667 0 8-.417 8-1 0-.55 1.8-1 4-1 3.778 0 4-.167 4-3s-.222-3-4-3c-2.2 0-4-.45-4-1 0-.583 3.333-1 8-1s8-.417 8-1 3.333-1 8-1c7.333 0 8-.167 8-2s.667-2 8-2c6.085 0 8-.326 8-1.362 0-.966-2.401-1.628-8.25-2.275-6.869-.761-4.819-.885 12.25-.741 11.275.094 18.587-.033 16.25-.283-2.338-.25-4.25-.871-4.25-1.381 0-.541-11.771-1.044-28.25-1.209-28.131-.28-28.098-.282 8-.515 23.656-.153 36.25.113 36.25.766 0 1.451 3.757 1.23 4.25-.25.321-.963 10.256-1.364 43.333-1.75l42.917-.5.021-3.5c.022-3.623.16-3.654 4.723-1.06 4.099 2.331 3.719 6.82-1.244 14.677-3.734 5.912-4 6.826-4 13.718 0 7.19.105 7.502 4 11.928 3.809 4.327 4 4.861 4 11.188 0 5.885-.4 7.271-3.5 12.116-3.255 5.089-3.5 6.034-3.5 13.5 0 7.397.208 8.221 2.646 10.481 2.226 2.062 3.645 2.452 8.935 2.452 6.194 0 6.332-.061 9.104-3.979 2.771-3.915 2.915-3.979 9.133-4l6.318-.021-2.068 2.904c-2.855 4.01-2.662 5.277.682 4.474 1.513-.362 2.768-.709 2.79-.769.454-1.226 5.742-7.552 6.251-7.477.39.058 8.093.052 17.117-.014l16.408-.118-.78-67.75c-.43-37.263-.893-69.1-1.029-70.75-.137-1.65-.307-9.7-.378-17.89L262 39.721l-25.75.618c-14.162.341-29.891.629-34.953.64l-9.203.021.61 23.973.611 23.973-4.139 6.032c-4.009 5.842-4.129 6.25-3.83 13.026l.309 6.996h-9.796c-8.297 0-9.708-.23-9.221-1.5.317-.825.063-1.5-.563-1.5-.627 0-1.546 1.012-2.044 2.25l-.904 2.25-.064-2.25c-.061-2.197-1.292-2.757-5.313-2.42-1.54.129-1.75-.865-1.75-8.274 0-7.717.178-8.478 2.132-9.098 1.675-.532 1.836-.864.75-1.552-.76-.481-2.394-.882-3.632-.891-1.238-.008-2.25-.513-2.25-1.122 0-.609.631-.865 1.403-.569.771.296 2.234-.097 3.25-.874 1.559-1.192 1.623-1.559.411-2.355-1.123-.737-1.177-1.254-.248-2.373.653-.787 1.263-3.365 1.355-5.73.145-3.677-.292-4.711-3.017-7.146-1.971-1.761-4.419-2.898-6.42-2.982-2.733-.115-2.849-.208-.747-.601 1.368-.255 3.687-1.319 5.154-2.364 3.199-2.277 4.578-2.47 2.859-.399-1.671 2.014-.115 1.914 2.153-.138 1.475-1.335 2.09-1.405 3.328-.378 1.041.864 1.519.908 1.519.138 0-.617.675-1.122 1.5-1.122s1.5.381 1.5.847c0 1.577 3.725 5.153 5.367 5.153.966 0 1.633-.817 1.633-2 0-1.1.45-2 1-2s1-.45 1-1-1.8-1-4-1c-2.889 0-4-.417-4-1.5 0-1.19 1.444-1.5 7-1.5s7 .31 7 1.5c0 .825.424 1.5.943 1.5.518 0 1.114 1.913 1.325 4.25.21 2.338.461-3.707.557-13.432L185 37.136l2.851-2.03c2.732-1.945 4.389-2.035 39.854-2.167 39.396-.147 40.557-.017 41.732 4.668.304 1.208.606 14.503.673 29.545.067 15.041.473 29.598.903 32.348.515 3.293.603 1.58.258-5.017l-.525-10.018 4.627.368c3.123.249 4.627.823 4.627 1.768 0 .769-.675 1.399-1.5 1.399-1.083 0-1.5 1.111-1.5 4v4h11v8h8v8h8v16h4c2.2 0 4-.45 4-1s1.8-1 4-1h4v14h4.845c3.575 0 5.319.524 6.655 2 1.911 2.111 4.5 2.687 4.5 1 0-.55 1.998-1 4.441-1 2.443 0 4.719.45 5.059 1 .34.55 1.941 1 3.559 1 2.089 0 2.975-.507 3.059-1.75.065-.963.462-.4.882 1.25l.763 3 .235-3.5c.129-1.925.441-2.707.694-1.738.253.969.875 1.505 1.384 1.191.508-.314.892.693.854 2.238-.059 2.351-.195 2.492-.832.863-.706-1.803-.81-1.766-1.416.5-.36 1.345-.654 3.121-.653 3.946.001 1.333.109 1.333.971 0 1.564-2.421 1.148.124-.968 5.912-1.082 2.961-1.712 5.797-1.399 6.303.313.506-.137 4.153-.999 8.103s-2.289 10.782-3.171 15.182c-.882 4.4-2.679 12.725-3.993 18.5s-3.803 17.25-5.532 25.5-3.819 16.068-4.644 17.373c-.826 1.305-1.005 2.066-.398 1.691 1.364-.843 1.441-1.48-.896 7.436-2.333 8.901-2.457 11-.651 11 1.497 0 3.78-8.286 8.267-30 .689-3.338.755-3.384 1.421-1 .464 1.662.698.489.697-3.5-.001-3.3.589-8.025 1.31-10.5.721-2.475 1.422-5.625 1.557-7 .281-2.87 8.043-39.856 8.824-42.047.284-.799.739-2.767 1.011-4.372.499-2.957 2.308-4.857 3.766-3.956.439.271.798-.07.798-.757 0-.707.586-.449 1.348.594.77 1.053 1.86 1.528 2.54 1.107 1.152-.712 1.016.921-.557 6.709-.266.979-.665 3.209-.886 4.957-.221 1.747-1.762 5.071-3.424 7.385-1.661 2.314-3.021 5.261-3.021 6.55 0 1.289-.388 3.697-.863 5.353-.622 2.167-.482 3.365.5 4.283 1.51 1.411 1.847 4.194.507 4.194-.471 0-1.159 3.253-1.529 7.228-.369 3.976-1.109 7.666-1.643 8.2-.535.535-.988 2.344-1.007 4.022-.02 1.677-.646 4.152-1.392 5.5-.747 1.347-1.162 2.957-.924 3.577.238.62-.515 5.368-1.674 10.55-1.159 5.183-2.534 11.673-3.058 14.423-.523 2.75-1.212 5.829-1.53 6.842-.431 1.367-.134 1.754 1.149 1.5 1.869-.37 4.148-8.322 8.52-29.73 1.278-6.264 2.846-11.876 3.483-12.471.637-.595.987-1.77.778-2.611-.209-.842.323-5.13 1.181-9.53.859-4.4 2.005-10.684 2.547-13.966.542-3.281 1.413-6.392 1.934-6.913.598-.598.719.464.329 2.871-.448 2.758-.299 3.621.536 3.104.694-.429 1.156-.063 1.156.916 0 1.45.167 1.464 1.5.131.825-.825 1.5-2.181 1.5-3.013 0-.831.498-1.82 1.107-2.196.77-.476.897.269.419 2.447-.378 1.722-.826 5.184-.995 7.694-.169 2.509-1.142 8.238-2.162 12.731-1.632 7.192-1.94 7.811-2.574 5.181-.458-1.901-.564-.987-.293 2.513.295 3.793.146 4.879-.477 3.5-.749-1.658-.907-1.401-.923 1.5-.048 9.07-.212 11.05-.881 10.637-.397-.245-.752.749-.79 2.208-.099 3.851-3.518 19.463-4.542 20.747-.479.601-.538 1.426-.13 1.833.407.408.291.651-.259.54-2.191-.442-4.5.089-4.5 1.035 0 .639 8.833 1 24.5 1H400v-11.559c0-7.451-.355-11.339-1-10.941-.55.34-1-.057-1-.882s.45-1.778 1-2.118c.55-.34 1-2.011 1-3.714 0-3.033-.041-3.059-2-1.286-1.965 1.779-2 1.747-2-1.845 0-2.01.45-3.655 1-3.655s1-.486 1-1.079c0-.68-1.113-.836-3-.421-2.969.652-4.17-.659-1.893-2.066.745-.461.77-.892.075-1.322-1.458-.901-1.909-6.322-.566-6.796.643-.227 1.39 1.318 1.762 3.645.355 2.222 1.054 4.039 1.552 4.039.499 0 1.618.273 2.488.607 1.401.538 1.582-1.185 1.582-15.059 0-10.189-.35-15.45-1-15.048-.55.34-1 .179-1-.358 0-.536.506-1.144 1.124-1.35.816-.272 1.259-27.061 1.621-98.083L401.243 0H0v57m.468.5c0 31.35.127 44.03.282 28.179.154-15.852.154-41.502-.001-57C.594 13.18.468 26.15.468 57.5M176 46c0 1.1.45 2 1 2s1-.9 1-2-.45-2-1-2-1 .9-1 2m67.039 5.747l-8.462.341 5.143 2.937c3.859 2.204 6.26 2.889 9.612 2.743 3.609-.157 4.168-.413 2.912-1.332-.96-.701-1.34-1.96-.993-3.286.309-1.183.491-2.058.405-1.946-.086.111-3.964.356-8.617.543m-39.672 2.928c-.763 3.038-.701 3.089 4.133 3.404 3.081.201 5.149-.476 9-2.949l5-3.211-8.763.169c-8.372.161-8.79.276-9.37 2.587m.3 6.992c-1.016 1.015-.796 9.531.229 8.897.852-.526 5.104-8.103 5.104-9.095 0-.724-4.581-.554-5.333.198M151 65.789c0 1.181.283 1.221 1.5.211.825-.685 1.5-1.34 1.5-1.456 0-.116-.675-.211-1.5-.211s-1.5.655-1.5 1.456M159 67c0 .55.434 1 .965 1 1.165 0 2.907 3.08 3.337 5.899.172 1.127.665 2.399 1.095 2.825.98.973-.341-6.605-1.564-8.974-.962-1.864-3.833-2.426-3.833-.75m6.375 2.125c.344 1.719.625 3.77.625 4.559 0 .789.353 1.216.784.95 1.131-.7.2-8.634-1.014-8.634-.609 0-.768 1.259-.395 3.125m-26.048 4.389c.645.696 1.403.977 1.685.625.281-.351.862-.92 1.291-1.264.429-.344-.329-.625-1.684-.625-1.938 0-2.214.27-1.292 1.264m-2.263.986c0 .55.66 1.874 1.468 2.941.807 1.068 1.468 1.491 1.468.941 0-.55-.661-1.873-1.468-2.941-.808-1.067-1.468-1.491-1.468-.941m47.094 3.5c0 1.375.227 1.938.504 1.25.278-.687.278-1.812 0-2.5-.277-.687-.504-.125-.504 1.25m189.921.583c.048 1.165.285 1.402.604.605.289-.722.253-1.585-.079-1.917-.332-.332-.568.258-.525 1.312m-211.838 2.403c-.683 1.093-1.241 3.091-1.241 4.441 0 1.35-.457 2.738-1.016 3.083-.559.346-.753 1.054-.431 1.575 1.152 1.865 2.447-.271 2.447-4.037 0-2.486.528-4.036 1.5-4.41.825-.316 1.5-1.039 1.5-1.607 0-1.675-1.425-1.181-2.759.955M249 82.596c0 .877-.931 2.902-2.068 4.5-2.064 2.899-2.064 2.904-.047 2.904 1.484 0 2.298-.997 3.062-3.75 1.296-4.665 1.302-5.25.053-5.25-.55 0-1 .718-1 1.596m127 .904c0 1.563.082 1.607 3.75 1.991 1.613.169 2.25-.292 2.25-1.628 0-1.403-.74-1.863-3-1.863-2 0-3 .5-3 1.5m-4 .559c0 .582.45.781 1 .441s1-.816 1-1.059-.45-.441-1-.441-1 .477-1 1.059m22.769 5.897c-.691 2.461-.278 3.886.812 2.797.319-.32.423-1.632.229-2.917l-.351-2.336-.69 2.456M139 89.416c0 1.055 3.012 3.905 3.554 3.364.252-.253-.444-1.276-1.548-2.274-1.103-.999-2.006-1.489-2.006-1.09m246.67 9.001c-.267.695-.111 1.87.346 2.609.686 1.11 1.107 1.117 2.408.037 1.055-.875 1.576-.937 1.576-.185 0 .617.481 1.122 1.07 1.122.588 0 .925-.965.75-2.144-.363-2.43-5.324-3.591-6.15-1.439m-248.92 10.245c.688.278 1.813.278 2.5 0 .688-.277.125-.504-1.25-.504s-1.937.227-1.25.504M141.5 110l-3 .763 2.691.119c1.48.065 2.969-.332 3.309-.882.34-.55.479-.947.309-.882-.17.065-1.659.462-3.309.882m130.5 3.059c0 .582.45.781 1 .441s1-.816 1-1.059-.45-.441-1-.441-1 .477-1 1.059m-141.25 1.647c1.238.238 3.262.238 4.5 0 1.238-.239.225-.434-2.25-.434s-3.488.195-2.25.434m10.063-.023c.721.289 1.584.253 1.916-.079.332-.332-.258-.568-1.312-.525-1.165.048-1.402.285-.604.604m130.03 1.318c-.309.825-.647 4.947-.752 9.161-.233 9.344 1.491 14.333 5.015 14.512 1.316.067 1.832-.094 1.144-.359-.687-.265-1.25-.91-1.25-1.434 0-.566.8-.523 1.977.107 1.575.843 1.867.77 1.435-.356-.34-.886 1.139-2.622 3.965-4.651 4.931-3.541 5.868-4.966 4.608-7.006-.659-1.065-1.66-.794-4.84 1.311l-4.01 2.653-1.137-3.446c-.626-1.896-1.628-3.344-2.227-3.22-.599.125-1.601-1.797-2.227-4.272-.676-2.668-1.368-3.889-1.701-3M.409 143.5c-.001 9.35.149 13.31.334 8.799.185-4.51.186-12.16.002-17C.562 130.46.41 134.15.409 143.5m362.67-9.917c.048 1.165.285 1.402.604.605.289-.722.253-1.585-.079-1.917-.332-.332-.568.258-.525 1.312m-6.079.858c0 .793.408 1.693.907 2.001.498.309.671-.34.383-1.441-.611-2.335-1.29-2.63-1.29-.56m-4.417 1.202c-.346.904-.394 1.879-.107 2.167.288.288.524-.002.524-.643 0-.642.45-1.167 1-1.167s1 .75 1 1.667c0 .916.266 1.4.591 1.075.79-.789-.504-4.742-1.551-4.742-.454 0-1.11.739-1.457 1.643M9.75 136.706c1.238.238 3.262.238 4.5 0 1.238-.239.225-.434-2.25-.434s-3.488.195-2.25.434m363.399 1.898c-1.626 1.838-1.402 2.13 2.124 2.769 2.155.391 2.727.111 2.727-1.332 0-1.005-.712-2.1-1.582-2.434-1.939-.744-1.652-.831-3.269.997M379 140c0 1.467.667 2 2.5 2 2.977 0 3.267-1.519.566-2.965-2.689-1.439-3.066-1.32-3.066.965m-13.07 2.083c-.066 2.244-.132 2.274-.93.417-.735-1.71-.87-1.746-.93-.25-.081 2.012-1.714 2.359-2.353.5-.237-.687-.312-.463-.167.5.144.963-.093 1.75-.527 1.75-1.206 0-1.994 5.371-.946 6.45.57.586.923-.275.923-2.25 0-3.454 1.495-4.076 5.123-2.134 1.873 1.002 1.951.837 1.302-2.75-.839-4.635-1.401-5.475-1.495-2.233m28.149-.5c.048 1.165.285 1.402.604.605.289-.722.253-1.585-.079-1.917-.332-.332-.568.258-.525 1.312M49.75 142.706c1.237.238 3.263.238 4.5 0 1.237-.239.225-.434-2.25-.434s-3.487.195-2.25.434m322.329 4.877c.048 1.165.285 1.402.604.605.289-.722.253-1.585-.079-1.917-.332-.332-.568.258-.525 1.312m8.921-.114c0 .959-.577 1.247-1.664.83-1.119-.43-1.427-.256-.941.531 1.173 1.898 3.605 1.338 3.605-.83 0-1.1-.225-2-.5-2s-.5.661-.5 1.469m-28.921 1.114c.048 1.165.285 1.402.604.605.289-.722.253-1.585-.079-1.917-.332-.332-.568.258-.525 1.312m-127.329 9.188c-3.562.254-4.75.742-4.75 1.95 0 .887-.296 1.316-.658.954-.769-.769-3.342 1.145-3.342 2.487 0 .527 4.877.73 11.5.476 6.482-.248 11.5-.047 11.5.461 0 1.114-1.83 1.232-14.75.954-9.698-.209-10.25-.112-10.25 1.804 0 1.114-.394 2.268-.875 2.566-1.27.785-1.086 5.948.244 6.812.808.525.774.739-.119.75-.687.008-1.25.69-1.25 1.515s.477 1.5 1.059 1.5.75.5.372 1.112c-.378.611-.067 1.495.691 1.963.758.469 1.378 1.431 1.378 2.139 0 .707 1.213 1.426 2.695 1.597 1.866.216 2.526.754 2.143 1.75-.425 1.108.45 1.462 3.805 1.54 11.055.257 15.03-.485 14.199-2.652-.401-1.046.199-1.449 2.158-1.449 1.931 0 2.557-.409 2.17-1.417a1.534 1.534 0 01.893-1.969c.79-.303 1.437-1.465 1.437-2.583 0-1.117.388-2.031.862-2.031 1.137 0 .381-6.763-1.146-10.25-.681-1.554-1.997-2.75-3.027-2.75-1.369 0-1.665-.499-1.189-2 .49-1.544.18-2-1.359-2-1.097 0-2.14-.728-2.318-1.618-.349-1.749-3.759-2.204-12.073-1.611m169.329 1.812c.048 1.165.285 1.402.604.605.289-.722.253-1.585-.079-1.917-.332-.332-.568.258-.525 1.312M225.5 160c-.34.55.084 1 .941 1s1.559-.45 1.559-1-.423-1-.941-1-1.219.45-1.559 1m4.769.693c.973.254 2.323.237 3-.037.677-.274-.119-.481-1.769-.461-1.65.02-2.204.244-1.231.498m138.759 2.773c-2.156 2.598-.606 3.525 1.646.986 1.39-1.567 1.705-2.452.873-2.452-.716 0-1.85.66-2.519 1.466m-11.997 3.034c0 .55.436 1.675.969 2.5.533.825.969 1.05.969.5s-.436-1.675-.969-2.5c-.533-.825-.969-1.05-.969-.5M223 168c-1.169.755-.893.973 1.25.985 1.512.008 2.75-.435 2.75-.985 0-1.264-2.043-1.264-4 0m10.813-.317c.721.289 1.584.253 1.916-.079.332-.332-.258-.568-1.312-.525-1.165.048-1.402.285-.604.604M370 170c0 1.1-.527 1.887-1.171 1.75-1.376-.294-5.088 8.845-4.533 11.161.226.947 1.354-.528 2.79-3.648 1.516-3.294 2.968-5.149 3.912-5 .826.13 1.457-.325 1.402-1.013-.055-.687-.167-2.15-.25-3.25-.083-1.1-.6-2-1.15-2-.55 0-1 .9-1 2m9.555 2.822c-.41 1.826-.499 3.567-.199 3.868.753.752 1.945-4.3 1.392-5.897-.246-.711-.783.202-1.193 2.029m-163.305-.133c.963.252 2.537.252 3.5 0 .963-.251.175-.457-1.75-.457s-2.713.206-1.75.457m7.563-.006c.721.289 1.584.253 1.916-.079.332-.332-.258-.568-1.312-.525-1.165.048-1.402.285-.604.604m6 0c.721.289 1.584.253 1.916-.079.332-.332-.258-.568-1.312-.525-1.165.048-1.402.285-.604.604m-3.544 7.01c.973.254 2.323.237 3-.037.677-.274-.119-.481-1.769-.461-1.65.02-2.204.244-1.231.498M236.5 183c-.34.55-.141 1 .441 1s1.059-.45 1.059-1-.198-1-.441-1-.719.45-1.059 1m-8.138 3.696c1.065 1.065 3.724 1.251 3.084.216-.31-.502-1.287-.912-2.172-.912-.884 0-1.294.313-.912.696m130.165 3.348c.355.574.208 1.586-.325 2.25-1.513 1.88-2.433 7.445-1.342 8.12.538.332 1.239-.75 1.559-2.405l1.16-6.009c.371-1.916.169-3-.559-3-.626 0-.848.47-.493 1.044m15.557 4.355c-.65.782-.803 1.657-.34 1.943 1.608.994 9.248 1.48 9.778.622.704-1.138-3.269-3.238-4.586-2.424-.563.348-1.619.138-2.347-.466-.98-.813-1.63-.729-2.505.325M395 197c0 .55.45 1 1 1s1-.45 1-1-.45-1-1-1-1 .45-1 1m-146.75 2.689c.963.252 2.537.252 3.5 0 .963-.251.175-.457-1.75-.457s-2.713.206-1.75.457m114.78 5.861c.027 2.586.163 2.722 1.104 1.104.769-1.324.761-2.159-.03-2.95-.805-.805-1.096-.305-1.074 1.846m18.049-.967c.048 1.165.285 1.402.604.605.289-.722.253-1.585-.079-1.917-.332-.332-.568.258-.525 1.312M378 207.948c0 .522 1.125 2.163 2.5 3.647l2.5 2.697-.07-3.396c-.054-2.613-.245-2.95-.828-1.462-.52 1.329-.986 1.563-1.489.75-.402-.651-.453-1.634-.113-2.184.34-.55-.084-1-.941-1s-1.559.427-1.559.948M370.782 211c-.294 1.925-.14 3.65.342 3.833.482.184.831 1.534.776 3l-.099 2.667-.745-2.5c-.688-2.312-.839-2.164-1.994 1.954-.687 2.449-1.278 6.37-1.313 8.711-.039 2.569-.461 4.013-1.064 3.64-.99-.612-.668 1.359.809 4.945.43 1.047.275 1.75-.387 1.75-.609 0-1.153-.787-1.209-1.75-.057-.963-.691.946-1.41 4.242-.719 3.296-1.115 6.302-.881 6.681.234.379-.032.971-.591 1.317-.559.345-1.016 1.107-1.016 1.691 0 .657.591.573 1.546-.219.85-.705 1.319-1.871 1.043-2.591-.276-.72.15-2.561.948-4.09.95-1.822 1.453-2.193 1.457-1.076.005 1.385.484 1.226 2.562-.852 1.629-1.628 3.263-2.372 4.5-2.048 1.878.491 2.386-.312 1.996-3.155-.102-.743.243-1.086.767-.762.525.324 1.188-.305 1.474-1.399.286-1.094.085-1.989-.446-1.989s-.713-.408-.405-.907c.309-.498-.34-.671-1.441-.383-1.536.402-2.001.031-2.001-1.593 0-1.165.398-2.117.883-2.117.486 0 1.162-.787 1.501-1.75.34-.963.915-2.425 1.279-3.25.546-1.237.396-1.281-.854-.249-1.327 1.095-1.457.644-1.048-3.62.288-2.991.038-5.137-.646-5.56-.613-.379-1.115-1.589-1.115-2.689s-.412-1.746-.915-1.435c-.503.311-1.106 0-1.342-.691-.235-.691-.667.319-.961 2.244m25.376-1c0 1.375.227 1.938.504 1.25.278-.687.278-1.812 0-2.5-.277-.687-.504-.125-.504 1.25m-35 5c0 1.375.227 1.938.504 1.25.278-.687.278-1.812 0-2.5-.277-.687-.504-.125-.504 1.25m3.037.5c.02 1.65.244 2.204.498 1.231.254-.973.237-2.323-.037-3-.274-.677-.481.119-.461 1.769m8.805 4.167c0 5.553.481 5.407 1.373-.417.402-2.629.265-4.25-.361-4.25-.557 0-1.012 2.1-1.012 4.667M8 217.583c0 1.766 2.153 1.459 2.771-.395.218-.654-.317-1.188-1.188-1.188-.87 0-1.583.713-1.583 1.583m369.079 0c.048 1.165.285 1.402.604.605.289-.722.253-1.585-.079-1.917-.332-.332-.568.258-.525 1.312m2 0c.048 1.165.285 1.402.604.605.289-.722.253-1.585-.079-1.917-.332-.332-.568.258-.525 1.312m-40 2c.048 1.165.285 1.402.604.605.289-.722.253-1.585-.079-1.917-.332-.332-.568.258-.525 1.312m30.559 2.917c-.316.825-.139 1.5.393 1.5.533 0 .969-.675.969-1.5s-.177-1.5-.393-1.5c-.216 0-.652.675-.969 1.5m-32.48 5.5c0 1.375.227 1.938.504 1.25.278-.687.278-1.812 0-2.5-.277-.687-.504-.125-.504 1.25m20.921 1.583c.048 1.165.285 1.402.604.605.289-.722.253-1.585-.079-1.917-.332-.332-.568.258-.525 1.312m-.807 6.417c0 2.475.195 3.488.434 2.25.238-1.238.238-3.262 0-4.5-.239-1.238-.434-.225-.434 2.25m1.728-3.059c0 .518.45 1.219 1 1.559.55.34 1-.084 1-.941s-.45-1.559-1-1.559-1 .423-1 .941m21 .059c0 .55.9 1 2 1s2-.45 2-1-.9-1-2-1-2 .45-2 1m-39.921 11.583c.048 1.165.285 1.402.604.605.289-.722.253-1.585-.079-1.917-.332-.332-.568.258-.525 1.312M360.5 259c-.34.55-.141 1 .441 1s1.059-.45 1.059-1-.198-1-.441-1-.719.45-1.059 1" fill="rgba(99, 102, 241)" fill-rule="evenodd"/><path fill-opacity=".384" d="M387.139 4.75c-.584 2.612-2.897 13.525-5.141 24.25s-5.437 25.35-7.097 32.5c-3.576 15.406-4.819 21.857-4.317 22.393.942 1.005 3.399-2.37 2.891-3.972-.314-.988-.114-2.612.444-3.608.558-.997 1.654-4.963 2.437-8.813 3.12-15.353 13.738-65.077 14.146-66.25.239-.687-.181-1.25-.934-1.25-.817 0-1.796 1.913-2.429 4.75m5.361 38.392c-5.842 26.838-7.303 32.24-8.83 32.646-1.524.406-1.774 1.322-1.5 5.49.293 4.437.093 5.039-1.769 5.333-1.154.182-2.915-.267-3.913-.996-1.509-1.103-2.25-1.101-4.398.013-2.239 1.162-2.8 2.507-4.211 10.106-.896 4.821-4.824 24.066-8.729 42.766-3.906 18.7-8.274 39.625-9.708 46.5-3.36 16.118-4.946 23.431-7.479 34.5-4.127 18.032-9.961 46.835-9.566 47.23.596.597 9.759-39.525 18.551-81.23 2.203-10.45 4.281-19.964 4.617-21.143.585-2.046 3.902-3.357 8.497-3.357 2.127 0 1.989 2.127-1.067 16.5-2.909 13.686-4.626 21.854-10.089 48-2.757 13.2-5.914 27.763-7.014 32.362-1.101 4.599-1.751 8.612-1.447 8.917.91.91 1.15.174 3.508-10.779 1.244-5.775 4.032-18.6 6.198-28.5 2.165-9.9 4.58-21.15 5.366-25 2.437-11.939 3.453-14.726 5.134-14.08.832.319 1.996.58 2.586.58.59 0 .328.823-.582 1.829-2.036 2.249-2.097 3.171-.212 3.171.794 0 2.144-1 3-2.223 1.538-2.195 1.557-2.18 1.593 1.25l.036 3.473 2.459-3c1.869-2.28 2.46-2.58 2.464-1.25.004 1.379.867 1.75 4.075 1.75 3.648 0 4.036.233 3.75 2.25-.344 2.422-2.424 2.759-8.446 1.368-3.667-.848-6.831 1.526-6.044 4.535.266 1.02-.848 8.04-2.477 15.601-8.138 37.777-10.127 46.796-10.577 47.969-.27.702.121 1.276.867 1.275.924-.001 1.941-3.111 3.189-9.75 1.008-5.361 2.239-11.323 2.736-13.248.497-1.925 2.295-10.25 3.996-18.5 3.906-18.94 3.772-18.5 5.422-17.867 1.001.384 1.471-.527 1.699-3.301.314-3.819.329-3.831 4.315-3.485 2.2.191 4.37.575 4.823.854.453.279.645 5.174.428 10.877-.3 7.899-.794 10.812-2.073 12.225-2.074 2.292-2.125 3.197-.178 3.197.825 0 1.506.563 1.514 1.25.007.688.3 2.323.651 3.634.475 1.773.281 2.265-.754 1.92-.766-.256-2.041.183-2.833.975-1.252 1.253-1.221 1.561.241 2.38 2.465 1.379 2.055 2.712-1.069 3.473-6.027 1.47-15.8 9.861-14.303 12.282.719 1.164 1.502 1.123 4.954-.258 2.254-.902 4.099-1.22 4.099-.707s-.457 1.216-1.016 1.561c-.559.346-.759 1.045-.444 1.555.877 1.419-4.369 5.779-7.373 6.127-1.484.171-2.556.863-2.417 1.558.138.688-.425 1.25-1.25 1.25s-1.5.45-1.5 1c0 .628 6.377 1 17.132 1h17.131l-.536-4c-.295-2.2-.391-4-.214-4 .178 0 .983-.253 1.789-.563 1.199-.459 1.373.271.952 4-.468 4.15-.321 4.563 1.616 4.563 2.047 0 2.13-.439 2.13-11.2 0-7.802-.318-10.882-1.047-10.153-.576.576-1.145 2.578-1.265 4.45-.217 3.403-1.193 4.303-3.319 3.063-.773-.451-.063-2.88 2.237-7.66 4.445-9.234 4.519-12.424.151-6.484-3.602 4.898-4.22 4.275-3.592-3.617.221-2.787-.061-4.399-.77-4.399-.616 0-1.417-2.53-1.78-5.623-.512-4.352-.329-5.877.808-6.75 1.84-1.41 2.813-21.931 1.007-21.239-1.414.543-1.429.445-2.317-14.888-.414-7.15-1.107-13.787-1.54-14.75-.502-1.116-.365-1.75.379-1.75.641 0 .888.45.548 1-.34.55-.141 1 .441 1 .607 0 1.072 2.241 1.089 5.25.025 4.256.236 4.897 1.113 3.387 1.061-1.826.567-12.679-.668-14.678-.326-.528-1.241-.959-2.034-.959-.945 0-1.441-1.068-1.441-3.107 0-2.351.365-2.967 1.5-2.531 1.159.444 1.5-.228 1.5-2.959 0-1.944.495-4.459 1.1-5.589.679-1.269.709-1.814.08-1.425-1.274.787-2.469-10.133-1.792-16.389.632-5.844 3.217-17.939 4.002-18.723.335-.336.61.413.61 1.663 0 1.663.425 2.111 1.582 1.667.87-.334 1.995-.607 2.5-.607.505 0 .918-3.15.918-7 0-6.491-1.246-9.323-2.311-5.25-.29 1.111-.499.775-.573-.918-.134-3.087.8-6.001 1.739-5.423.355.219.71-3.721.79-8.756l.145-9.153-2.152 8.5c-1.183 4.675-2.427 8.95-2.763 9.5-.337.55-.914 2.672-1.282 4.715-.696 3.856-2.349 5.784-3.455 4.029-.351-.557-1.538-1.183-2.638-1.392-3.279-.622-2.573-4.287.903-4.683 4.828-.551 5.614-2.143 5.103-10.33-.252-4.036-.469-7.628-.482-7.981-.013-.352-1.149-.924-2.524-1.269-1.375-.345-2.5-1.077-2.5-1.627s2.723-13.162 6.051-28.025c4.079-18.219 5.952-28.643 5.75-31.99-.246-4.05-1.591.964-7.301 27.195m-170.75-2.377l-28.75.266v49.065l-3.5 5.471c-3.2 5.004-3.5 6.112-3.5 12.952V116h-9.927c-8.613 0-9.987-.232-10.384-1.75-.435-1.667-.463-1.667-.573 0-.131 1.972-1.743 2.37-2.34.579-.215-.645-1.397-1.246-2.627-1.336-1.364-.101-2.059.299-1.781 1.024.292.761-.44 1.09-2.032.916-2.001-.22-2.342.054-1.742 1.397 1.405 3.144 1.638 10.186.386 11.694-1.845 2.223-11.574 2.016-12.874-.274-.903-1.593-1.136-1.608-2.587-.177-1.428 1.409-8.813 1.531-70.557 1.165L0 128.83v7.487l40.25-.665c22.137-.367 63.335-.686 91.55-.71 28.215-.024 51.953-.294 52.75-.6.923-.354 1.45-1.971 1.45-4.449 0-4.466.262-4.631 3-1.893 1.1 1.1 2.675 2 3.5 2 2.295 0 2.027 9.054-.359 12.115-3.985 5.114-5.141 8.718-5.141 16.032 0 6.2.38 7.795 2.636 11.049 1.45 2.092 3.025 3.804 3.5 3.804.475 0 .864 3.591.864 7.981 0 7.455-.237 8.351-3.604 13.613-3.456 5.404-3.588 5.939-3.225 13.128.488 9.651 2.127 11.278 11.367 11.278 5.725 0 6.51-.258 8.379-2.75 1.133-1.513 2.534-3.312 3.112-4 1.079-1.285 12.092-1.796 13.272-.616.348.349-.252 1.759-1.334 3.135-2.508 3.189-2.49 4.298.066 3.908 1.118-.17 3.159-1.968 4.536-3.994l2.503-3.683h35.211l-.633-41.25c-.348-22.687-.925-61.16-1.282-85.495l-.649-44.245-5.609.245c-3.086.135-18.547.364-34.36.51m12.252 11.485c-.001.413.569.75 1.266.75.697 0 2.923 1.125 4.947 2.5 2.023 1.375 4.94 2.552 6.482 2.616 1.691.07 2.109.297 1.053.573-2.396.626-2.213 2.311.25 2.311 1.175 0 2-.667 2-1.617 0-1.124.609-1.457 1.999-1.094 1.099.288 2.251.115 2.559-.383.308-.498-.142-.906-.999-.906-1.075 0-1.559-.957-1.559-3.084v-3.084l-8.998.334c-4.949.184-8.999.671-9 1.084m-30.335.417c-.367.366-.667 1.716-.667 3 0 1.283-.45 2.333-1 2.333s-1 .505-1 1.122c0 .777.385.808 1.25.101.688-.562 3.187-.924 5.553-.805 2.367.12 4.536-.157 4.819-.616.284-.458 2.622-1.931 5.197-3.271l4.681-2.438-9.083-.046c-4.996-.026-9.384.253-9.75.62m.533 8.533c-1.439 1.439-1.655 11.199-.228 10.318 1.445-.894 5.098-9.595 4.461-10.627-.776-1.255-2.817-1.107-4.233.309m-59.902 10.521c-3.141 2.726-5.504 8.279-3.523 8.279 1.231 0 2.426 3.439 2.719 7.822.121 1.827.938 4.038 1.813 4.914 1.381 1.381 1.823 1.405 3.33.178 1.542-1.255 1.663-1.214 1.073.359-.571 1.524-.378 1.62 1.376.681 1.496-.801 2.414-.784 3.434.063.766.635 1.862.865 2.436.51 1.196-.739 1.421-2.587.294-2.409-.412.066-1.537.066-2.5 0-2.091-.141-2.381-2.118-.31-2.118.941 0 1.547-1.297 1.75-3.75.194-2.345.778-3.656 1.56-3.5 2.273.455 1.511-7.338-1-10.228-3.425-3.942-8.458-4.266-12.452-.801M249 81.929c0 1.06-.604 2.532-1.342 3.27-1.439 1.439-3.658 5.262-3.658 6.302 0 .347 1.238.489 2.75.315 1.897-.218 2.808-.936 2.936-2.316.102-1.1.498-3.687.881-5.75.469-2.532.327-3.75-.436-3.75-.622 0-1.131.868-1.131 1.929m-104 2.579c0 2.259.2 2.384 2 1.26 2.412-1.506 2.524-2.353.418-3.161-2.334-.896-2.418-.829-2.418 1.901m12.565 3.387c-.305.493.096 1.145.89 1.449.963.37 1.258.072.887-.895-.645-1.68-1.011-1.794-1.777-.554m-11.917 1.579c-.433 1.13.099 1.526 2.05 1.526 1.449 0 2.448-.127 2.219-.283a86.702 86.702 0 01-2.05-1.525c-1.332-1.013-1.742-.961-2.219.282m225.891.499c-.25.84-1.847 8.052-3.549 16.027-1.702 7.975-4.645 21.659-6.542 30.408-1.896 8.75-3.448 16.916-3.448 18.146v2.238l5.017-2.585c4.471-2.304 5.18-3.13 6.5-7.578.816-2.745 1.483-5.951 1.483-7.122 0-1.172.931-5.685 2.069-10.029 4.325-16.511 8.963-38.844 8.213-39.544-.43-.401-2.696-.9-5.035-1.108-3.181-.284-4.369.006-4.708 1.147m-118.463.754a90.828 90.828 0 011.641 2.19c.156.229.283-.286.283-1.143 0-.858-.739-1.843-1.641-2.19-1.429-.548-1.466-.4-.283 1.143m-6.263-.044c.721.289 1.584.253 1.916-.079.332-.332-.258-.568-1.312-.525-1.165.048-1.402.285-.604.604M155.272 100c0 2.475.195 3.487.434 2.25.238-1.237.238-3.263 0-4.5-.239-1.237-.434-.225-.434 2.25m95.6-2.25c-1.243 1.586-1.208 1.621.378.378.963-.755 1.75-1.543 1.75-1.75 0-.823-.821-.294-2.128 1.372m127.852 17.408c-1.527 6.788-2.764 12.627-2.75 12.975.014.349 1.148.848 2.52 1.111 4.309.823 4.814-1.047 3.868-14.323l-.862-12.105-2.776 12.342M154.5 111c.34.55.816 1 1.059 1s.441-.45.441-1-.477-1-1.059-1-.781.45-.441 1m116.155 12.5c-.633 6.388-.474 8.756.79 11.75 1.457 3.455 1.753 3.652 3.751 2.5 1.194-.687 3.366-2.273 4.827-3.523 1.462-1.25 3.516-2.901 4.566-3.668 3.235-2.366.878-2.767-2.958-.504-3.055 1.803-3.709 1.904-4.19.651-.34-.885-1.347-1.282-2.493-.982-2.328.609-3.914-2.509-1.908-3.749.987-.609 1.046-1.167.227-2.153-.607-.731-1.265-2.903-1.462-4.826-.237-2.322-.624-.81-1.15 4.504m127.745-6.662c.812 1.314-.628 4.389-1.99 4.246-1.341-.141-1.712 16.847-.402 18.426.726.875.751 1.521.075 1.939-.621.383-.81 3.622-.488 8.339.29 4.242.612 16.113.716 26.38.104 10.268.551 19.03.993 19.471 2.165 2.16 2.666-4.541 2.681-35.782.013-28.992-.192-33.723-1.485-34.219-.825-.316-1.5-1.264-1.5-2.107 0-.842.675-1.531 1.5-1.531 1.789 0 2.069-4.53.345-5.595-.712-.441-.883-.275-.445.433m-237.869 4.455c-.428.986-.497 2.074-.155 2.417 1.016 1.015 1.835-.411 1.367-2.382-.414-1.747-.468-1.748-1.212-.035m213.073 15.8c-1.753 3.512-2.013 4.972-.854 4.789.413-.066.975-.026 1.25.088.275.114 2.637.361 5.25.549 3.968.286 4.75.057 4.75-1.389 0-2.117-1.887-4.13-3.871-4.13-.809 0-2.248-.703-3.197-1.561-1.588-1.437-1.852-1.306-3.328 1.654m-1.957 9.093c-1.049 3.918-.769 4.312 3.103 4.364 2.063.027 4.482.392 5.377.81 1.231.575 1.791.102 2.305-1.945.87-3.467.087-4.162-5.549-4.921-4.229-.57-4.668-.428-5.236 1.692M222.25 156.655c-1.238.266-2.25 1.128-2.25 1.915 0 .786-.686 1.43-1.525 1.43-.838 0-1.952 1.125-2.475 2.5-.523 1.375-1.46 2.5-2.082 2.5-.623 0-.894.62-.603 1.378.291.758.151 1.771-.312 2.25-2.255 2.34-.938 15.372 1.554 15.372.759 0 1.156.585.882 1.299-.608 1.583 7.049 6.111 9.042 5.347.764-.294 1.571.004 1.792.66.289.86.797.896 1.814.13.777-.585 3.213-1.189 5.413-1.342 2.352-.164 4.737-1.065 5.789-2.186.984-1.05 2.221-1.908 2.75-1.908.529 0 .961-.653.961-1.45 0-.798.784-1.889 1.742-2.425.958-.536 1.411-1.305 1.008-1.708s-.235-1.333.374-2.066c1.27-1.531.287-10.351-1.154-10.351-.499 0-.638-.702-.309-1.56.397-1.032-.098-1.741-1.462-2.098-1.244-.325-1.849-1.091-1.526-1.932.302-.786-.273-1.697-1.319-2.09-1.02-.383-2.356-1.366-2.97-2.184-1.141-1.523-10.628-2.451-15.134-1.481m146.918 4.642c-.592.714-1.521 3.752-2.063 6.75-.543 2.999-1.71 8.319-2.593 11.822-.884 3.503-1.411 6.566-1.171 6.806.8.799 5.85-4.557 5.235-5.552-.333-.538.189-1.231 1.159-1.54.971-.308 3.003-1.709 4.515-3.112 2.346-2.177 2.75-3.346 2.75-7.955 0-4.449-.392-5.677-2.223-6.959-2.707-1.897-4.193-1.966-5.609-.26m11.194 7.203c-1.376 2.516-2.823 13.38-1.598 12 1.518-1.71 3.445-8.986 3.059-11.554-.352-2.349-.41-2.367-1.461-.446m-6.283 11.168c-.043.643-.338 1.993-.655 3-.547 1.741-.518 1.744.571.044.631-.983.925-2.333.655-3-.355-.875-.514-.887-.571-.044m18.01 7.156c.097 4.534.41 8.01.696 7.725.639-.639.284-14.813-.388-15.485-.266-.266-.405 3.226-.308 7.76m5.578 11.843c-1.167 1.167-.656 5.764.865 7.774 1.351 1.787 1.468 1.529 1.468-3.25 0-4.818-.694-6.164-2.333-4.524M206 200c0 .55.927 1 2.059 1 1.132 0 1.781-.45 1.441-1-.34-.55-1.266-1-2.059-1-.793 0-1.441.45-1.441 1m41.762-.293c1.244.239 3.044.23 4-.02s-.062-.446-2.262-.435c-2.2.011-2.982.216-1.738.455m143.317 3.876c.048 1.165.285 1.402.604.605.289-.722.253-1.585-.079-1.917-.332-.332-.568.258-.525 1.312M375 210.5c0 .825.45 1.5 1 1.5s1-.675 1-1.5-.45-1.5-1-1.5-1 .675-1 1.5m14.75-.168c-1.181 2.885-.958 6.276.328 4.99.593-.593.931-2.371.75-3.95-.269-2.357-.462-2.544-1.078-1.04m7.917 14.335c-1.151 1.15-.729 2.333.833 2.333.825 0 1.5-.675 1.5-1.5 0-1.562-1.183-1.984-2.333-.833" fill="rgba(99, 102, 241)" fill-rule="evenodd"/><path fill-opacity=".84" d="M398.079 22.583c.048 1.165.285 1.402.604.605.289-.722.253-1.585-.079-1.917-.332-.332-.568.258-.525 1.312m-1 5c.048 1.165.285 1.402.604.605.289-.722.253-1.585-.079-1.917-.332-.332-.568.258-.525 1.312m-195.791 14.16l-8.212.337.552 55.21c.304 30.365.624 68.485.712 84.71l.16 29.5 27.5-.275c15.125-.151 30.791-.544 34.814-.874l7.313-.598-.552-16.126c-.304-8.87-.856-42.452-1.228-74.627-.371-32.175-.77-59.737-.886-61.25-.116-1.513-.267-5.9-.336-9.75L261 41l-25.75.204c-14.162.111-29.445.354-33.962.539m29.162 1.172c-.522.504-2.075 1.117-3.45 1.364-1.821.327-1.482.486 1.25.585 2.727.099 3.75-.273 3.75-1.364 0-1.743-.25-1.837-1.55-.585M250.5 43c-.34.55-1.829 1.052-3.309 1.116-1.834.079-2.109.266-.862.589 2.408.622 6.671-.48 6.671-1.724 0-1.279-1.706-1.266-2.5.019m-44 1c-2.986.76-2.982.764.75.882 2.063.065 3.75-.332 3.75-.882 0-1.102-.17-1.102-4.5 0m186.579.583c.048 1.165.285 1.402.604.605.289-.722.253-1.585-.079-1.917-.332-.332-.568.258-.525 1.312M209.433 46.94c-.513.498-2.283 1.098-3.933 1.333-2.748.392-2.69.44.691.577 2.03.083 3.988-.33 4.35-.917.877-1.418.072-2.139-1.108-.993m18.067-.05c-2.092.455-2.605.901-1.693 1.475 1.593 1.004 6.193-.024 6.193-1.384 0-1.061-.043-1.061-4.5-.091m21.5-.169c-3.62.649-4.865 2.248-1.398 1.795 1.594-.208 3.461-.409 4.148-.447.688-.038 1.25-.519 1.25-1.069 0-.55-.338-.939-.75-.864l-3.25.585m-43.25 5.054c-2.149.279-2.75.89-2.75 2.791 0 2.802-1.631 3.284-2.311.684-.251-.962-.509-.336-.573 1.393-.072 1.955.451 3.361 1.384 3.719 1.111.426 1.504 2.206 1.515 6.857.011 4.179.321 5.798.928 4.838.662-1.046 1.024-.358 1.317 2.5l.404 3.943.168-4.282c.654-16.665 18.122-26.923 32.921-19.334 11.998 6.153 15.053 21.13 6.381 31.281-1.999 2.339-3.071 3.907-2.384 3.485.877-.539 1.25.013 1.25 1.85 0 1.585.417 2.36 1.057 1.965 1.92-1.187 5.784.413 5.51 2.282-.28 1.902-.415 1.943-7.067 2.128-2.475.069-4.5.549-4.5 1.068 0 .518 2.358.779 5.241.58 3.279-.227 5.519.075 5.984.807.543.853.749.816.76-.139.008-.72.515-1 1.126-.622.772.477.998-.736.74-3.973-.313-3.941-.176-4.394.889-2.937 1.168 1.598 1.26 1.578 1.26-.268 0-1.095-.393-2.418-.873-2.941-1.367-1.489-2.185-17.992-.953-19.224 1.17-1.17 3.256-4.646 4.637-7.726 1.407-3.141 2.324-11.702 1.177-10.993-.543.336-.988 2.232-.988 4.214 0 3.391-5.033 13.952-5.602 11.755-.883-3.408-.881-8.359.003-7.475C254.186 61.786 255 61.065 255 57.7c0-1.815.489-3.789 1.087-4.387.76-.76.769-1.284.029-1.741-.596-.369-1.335.454-1.695 1.887-.554 2.207-2.622 3.815-2.303 1.791.703-4.45 1.181-4.36-21.868-4.089-11.963.14-22.988.417-24.5.614M196.232 56c0 1.925.206 2.712.457 1.75.252-.962.252-2.538 0-3.5-.251-.962-.457-.175-.457 1.75m9.018 3.689c.963.252 2.537.252 3.5 0 .963-.251.175-.457-1.75-.457s-2.713.206-1.75.457M248.5 62c.34.55 1.041 1 1.559 1s.941-.45.941-1-.702-1-1.559-1-1.281.45-.941 1M143.77 73.215c-2.106 1.967-2.772 3.301-2.263 4.536.396.962.946 2.536 1.223 3.499.571 1.987 1.915 2.315 2.484.607.283-.847.969-.829 2.645.067 2.235 1.197 2.444 3.81.266 3.326-1.436-.319-1.476 2.415-.048 3.297.592.366 2.617.738 4.5.827 3.388.159 3.423.117 3.423-4.107 0-2.347.42-4.267.933-4.267 1.81 0 2.151-3.937.6-6.936-2.5-4.835-9.063-5.24-13.763-.849m111.959 1.389c-.401.401-.7 1.892-.666 3.313l.064 2.583.965-2.414c1.04-2.602.825-4.669-.363-3.482m2.878.978c-.939 2.446-.735 2.769.893 1.418 1.662-1.38 1.99-3 .607-3-.491 0-1.166.712-1.5 1.582M386 76.833c0 .642-.726 1.167-1.614 1.167-1.34 0-1.501.746-.952 4.411.393 2.617.253 4.664-.342 5.032-.553.342-.758 1.263-.457 2.048.301.784-.009 3.111-.688 5.17-.917 2.778-.94 3.841-.091 4.124.733.245 1.144 3.288 1.144 8.474v8.093l3.501-4.924c3.673-5.167 3.957-6.922 1.121-6.937-3.941-.02-4.735-7.703-2.026-19.614.878-3.86 1.328-7.286 1-7.614-.328-.328-.596-.071-.596.57M196.158 79c0 1.375.227 1.938.504 1.25.278-.687.278-1.812 0-2.5-.277-.687-.504-.125-.504 1.25m202.921 3.583c.048 1.165.285 1.402.604.605.289-.722.253-1.585-.079-1.917-.332-.332-.568.258-.525 1.312m-245.633.504c-.369.598-.171 1.588.441 2.2.817.817 1.113.528 1.113-1.087 0-2.415-.519-2.787-1.554-1.113M209 86c.589 1.1 1.295 2 1.57 2 .275 0 .019-.9-.57-2s-1.295-2-1.57-2c-.275 0-.019.9.57 2m189.079.583c.048 1.165.285 1.402.604.605.289-.722.253-1.585-.079-1.917-.332-.332-.568.258-.525 1.312M144.27 87.931c.08 1.062.482 1.722.894 1.468.412-.255.495-1.124.185-1.931-.781-2.036-1.252-1.834-1.079.463M215 89c0 .55.477 1 1.059 1s.781-.45.441-1-.816-1-1.059-1-.441.45-.441 1m182.079 1.583c.048 1.165.285 1.402.604.605.289-.722.253-1.585-.079-1.917-.332-.332-.568.258-.525 1.312M245 95.018c-1.19.784-1.041.924.724.677 1.224-.17 2.536-.622 2.917-1.003 1.061-1.061-1.942-.792-3.641.326m150.166 3.631c-1.918 7.651-2.317 9.835-1.68 9.199.802-.803 3.5-12.196 3.005-12.691-.198-.197-.794 1.374-1.325 3.492m-139.841-.991c.362.362.283 1.149-.175 1.75-.458.601-.462 2.217-.01 3.592.812 2.468.818 2.465.48-.25-.419-3.365 2.034-3.824 2.674-.5l.434 2.25.136-2.25c.075-1.237.586-2.25 1.136-2.25.55 0 1-.73 1-1.622 0-1.397-.232-1.432-1.663-.25-1.296 1.07-1.755 1.097-2.083.122-.231-.687-.908-1.25-1.504-1.25s-.787.296-.425.658m-32.575 2.004c.688.278 1.813.278 2.5 0 .688-.277.125-.504-1.25-.504s-1.937.227-1.25.504m-25.671 2.921c.048 1.165.285 1.402.604.605.289-.722.253-1.585-.079-1.917-.332-.332-.568.258-.525 1.312M244 106.882c0 .55.45 1.278 1 1.618.55.34 1 .168 1-.382s-.45-1.278-1-1.618c-.55-.34-1-.168-1 .382m9 .059c0 .518.45 1.219 1 1.559.55.34 1-.084 1-.941s-.45-1.559-1-1.559-1 .423-1 .941m139.079 4.642c.048 1.165.285 1.402.604.605.289-.722.253-1.585-.079-1.917-.332-.332-.568.258-.525 1.312M247 111.566c0 .311.542 1.548 1.204 2.75.662 1.201 1.502 4.209 1.867 6.684l.662 4.5.133-4.3c.074-2.364-.553-5.627-1.392-7.25-1.409-2.724-2.474-3.751-2.474-2.384M160.5 115c.34.55.816 1 1.059 1s.441-.45.441-1-.477-1-1.059-1-.781.45-.441 1m229.063 6.736c-.959 4.27-2.342 9.564-3.074 11.764l-1.331 4-.202-7-.203-7-.91 6.357c-.647 4.525-.579 6.757.239 7.741 1.205 1.453.566 8.567-1.182 13.165-.783 2.06-1.362 2.336-3.665 1.745-5.479-1.405-10.017-1.089-11.183.779-.613.982-2.226 2.209-3.583 2.725-3.197 1.215-3.178 2.988.031 2.988 1.606 0 2.5.562 2.5 1.571 0 1.429.143 1.429 1.571 0 .956-.955 3.308-1.571 6-1.571 4.395 0 4.429.027 4.429 3.5 0 3.409 1.216 4.578 2.537 2.44.414-.669 1.156-.393 2.015.75 1.175 1.563 1.354.378 1.312-8.69-.041-8.685.588-13.236 3.635-26.325 2.026-8.704 3.486-16.023 3.245-16.264-.241-.242-1.223 3.055-2.181 7.325m-226.341-2.046c-.048 1.545-.539 4.811-1.092 7.256-.553 2.446-.782 4.808-.509 5.25.273.442-.032.804-.679.804-.717 0-.987-.983-.693-2.524.266-1.388.093-2.765-.383-3.059-.476-.294-.88.054-.898.774-.019.807-.594.565-1.5-.632-1.443-1.908-1.468-1.906-1.468.127 0 3.287-2.142 4.321-7.604 3.674-3.86-.457-5.26-.229-6.302 1.026-1.225 1.477.58 1.614 21.284 1.614H186v-16.968l-3.947.264c-2.171.146-4.24.557-4.598.915-.358.358-1.394.423-2.303.145-1.039-.319-.91-.053.348.716 2.811 1.719 2.778 1.669 1.975 2.968-.549.888-.91.874-1.486-.058-.521-.842-1.2-.324-2.155 1.644-1.038 2.141-2.087 2.864-4.114 2.835-1.961-.029-2.72.459-2.72 1.75 0 .984-.48 1.789-1.067 1.789-.634 0-.793-.864-.393-2.125.454-1.43.312-1.902-.433-1.441-.609.376-1.107.207-1.107-.375 0-1.119 1.129-1.388 4.654-1.111 1.185.094 2.45-.306 2.81-.889.4-.648-.435-1.065-2.155-1.074-3.279-.018-5.808-1.368-5.003-2.671.309-.5.211-1.478-.218-2.172-.495-.8-.812-.233-.866 1.548m96.417 1.004c-.351.352-.578 2.252-.503 4.223.105 2.759.242 3.008.596 1.083.253-1.375.888-3.022 1.412-3.661 1.016-1.237-.383-2.766-1.505-1.645M271 126.268c0 8.288 1.379 12.492 3.517 10.718.815-.677 1.497-.838 1.513-.358.017.479.491.081 1.055-.886 1.351-2.32.262-3.91-2.424-3.54-1.986.274-2.175-.174-2.33-5.538-.236-8.128-1.331-8.454-1.331-.396m-15.806-1.724c.08 2.114.444 3.041.904 2.298.423-.686.536-1.625.25-2.088-.286-.463.024-1.497.688-2.298.972-1.171.897-1.456-.383-1.456-1.182 0-1.558.914-1.459 3.544M168 129.059c0 .582.45.781 1 .441s1-.816 1-1.059-.45-.441-1-.441-1 .477-1 1.059m206.079.524c.048 1.165.285 1.402.604.605.289-.722.253-1.585-.079-1.917-.332-.332-.568.258-.525 1.312m24.057-.333c-.075.963-.586 1.75-1.136 1.75-.55 0-1 .702-1 1.559s.403 1.31.895 1.006c.493-.305 1.192.219 1.554 1.163.564 1.471.792 1.506 1.589.244 1.208-1.91 1.23-4.256.033-3.516-.51.315-1.124-.446-1.363-1.691-.286-1.487-.482-1.664-.572-.515M17.75 131.774c-13.976.229-16.75.519-16.75 1.75C1 134.798 5.969 135 37.337 135 98.899 135 140 133.915 140 132.289c0-1.169-8.291-1.34-52.75-1.088-29.013.164-60.287.422-69.5.573m195.366 2.254c-.134 1.763 2.104 3.846 6.384 5.94 4.86 2.378 5.034 2.422 3.482.887-.815-.807-2.298-1.776-3.295-2.154-.998-.378-1.534-1.14-1.191-1.694.354-.573-.45-1.007-1.864-1.007-1.526 0-2.662-.675-2.943-1.75-.34-1.304-.487-1.361-.573-.222M397 138c0 .55.45 1 1 1s1-.45 1-1-.45-1-1-1-1 .45-1 1m-143.812 2.063c.24.721 1.028 1.509 1.75 1.75.75.25 1.125-.125.875-.875-.241-.722-1.029-1.51-1.75-1.75-.75-.25-1.125.125-.875.875m-8.678.953c.346.559 1.047.758 1.559.441 1.387-.857 1.129-1.457-.628-1.457-.857 0-1.276.457-.931 1.016M252.5 144c.34.55.816 1 1.059 1s.441-.45.441-1-.477-1-1.059-1-.781.45-.441 1m2.921 2.457c-.339 1.351-.383 3.039-.098 3.75.286.711.555.307.598-.898.043-1.205.529-2.469 1.079-2.809 1.285-.794 1.298-2.5.019-2.5-.539 0-1.258 1.106-1.598 2.457m3.973-1.041c-.299.778-.352 2.691-.118 4.25.411 2.742.429 2.729.574-.416.083-1.787.6-3.25 1.15-3.25.55 0 1-.45 1-1 0-1.514-1.987-1.197-2.606.416m137.685 2.167c.048 1.165.285 1.402.604.605.289-.722.253-1.585-.079-1.917-.332-.332-.568.258-.525 1.312m1.159 5.58c-1.503 1.502-1.628 3.837-.207 3.837 1.208 0 2.315-2.462 1.801-4.005-.239-.715-.767-.66-1.594.168m-171.717 2.644c-4.354.223-6.47.834-7.788 2.25-.996 1.069-2.191 1.943-2.655 1.943-.465 0-1.109.787-1.432 1.75-.324.963-1.019 2.425-1.545 3.25-2.684 4.208-3.18 8.134-1.806 14.296 1.251 5.609 4.443 9.21 10.602 11.963 3.641 1.627 5.015 1.782 8 .902 1.981-.584 4.728-1.312 6.103-1.617 5.882-1.306 12.397-11.22 11.719-17.832-.209-2.039-.682-4.008-1.05-4.376-.368-.368-.669-1.267-.669-1.997 0-2.113-8.327-9.984-11.037-10.432-1.355-.224-5.153-.269-8.442-.1m18.032.108a1.116 1.116 0 00.362 1.532c.521.322 1.21.159 1.532-.362a1.116 1.116 0 00-.362-1.532 1.116 1.116 0 00-1.532.362m8.947.085c-.34.55.11 1 1 1s1.34-.45 1-1c-.34-.55-.79-1-1-1-.21 0-.66.45-1 1m-5.592 6.75c1.083 2.063 2.438 5.325 3.013 7.25 1.042 3.493 1.043 3.491.533-.855-.563-4.797-2.941-10.145-4.51-10.145-.552 0-.118 1.688.964 3.75m149.228 2.935c-.075 3.402.297 7.323.826 8.714.616 1.62.616 2.744 0 3.125-1.517.937-1.238 13.734.288 13.228 1.577-.523 2.287-21.314.828-24.25-.547-1.101-1.177-3.127-1.4-4.502-.223-1.375-.467.283-.542 3.685m-140.594 2.107c-.298.298-.489 1.929-.424 3.625l.119 3.083.641-3c.745-3.483 2.336-3.633 3.272-.309.409 1.451.688 1.689.75.641.055-.918.352-2.324.659-3.125.398-1.038-.165-1.457-1.958-1.457-1.385 0-2.761.244-3.059.542m126.029 6.779c-2.248 2.249-1.988 3.723.429 2.429 1.1-.589 2-1.73 2-2.535 0-1.865-.478-1.844-2.429.106m-5.842 1.033c-.401.401-.7 1.892-.666 3.313l.064 2.583.965-2.414c1.04-2.602.825-4.669-.363-3.482m6.271 4.152c0 .706-5.9 3.713-7 3.567-.741-.099-3.932 6.938-3.934 8.677-.002 1.114.386.986 1.505-.495 1.204-1.593 1.677-1.722 2.347-.638.461.746 2.693 1.696 4.96 2.111l4.122.753v-7.365c0-4.244-.424-7.366-1-7.366-.55 0-1 .34-1 .756m-129 9.185c0 .518.45 1.219 1 1.559.55.34 1.036 2.054 1.079 3.809.07 2.838.351 2.672 1.373-.809.471-1.606.11-3.021-.702-2.75-.413.137-.75-.425-.75-1.25s-.45-1.5-1-1.5-1 .423-1 .941M245 190c0 .55.423 1 .941 1s1.219-.45 1.559-1c.34-.55-.084-1-.941-1s-1.559.45-1.559 1m15.667.667c-.367.366-.621 2.054-.565 3.75l.103 3.083.821-3.493c.855-3.64.766-4.466-.359-3.34M253 193c0 .55.477 1 1.059 1s.781-.45.441-1-.816-1-1.059-1-.441.45-.441 1m-7.557 6.418c-1.764 1.29-1.533 1.389 2.559 1.093 2.474-.178 4.862-.366 5.307-.418.445-.051.531-.543.191-1.093-.909-1.471-5.822-1.217-8.057.418M205 200c0 .55 1.377 1 3.059 1 1.785 0 2.802-.417 2.441-1-.34-.55-1.716-1-3.059-1-1.343 0-2.441.45-2.441 1m7 .031c0 .533.675.969 1.5.969s1.5-.177 1.5-.393c0-.216-.675-.652-1.5-.969-.825-.316-1.5-.139-1.5.393m158.603-.198c-1.026 1.66-.229 6.167 1.09 6.167.878 0 1.071-.979.638-3.25-.732-3.847-.938-4.195-1.728-2.917m14.114 12.874c-.43.664-.741 6.514-.691 13 .117 15.008-.6 17.689-4.842 18.106-2.841.28-3.303.683-3.14 2.741.024.305-.988 1.468-2.25 2.584-1.897 1.678-1.969 1.925-.417 1.428 1.032-.33 2.382-.183 3 .328.618.511 2.473 1.081 4.123 1.268 2.695.304 3.021.72 3.208 4.088.19 3.438-.012 3.75-2.429 3.75-2.469 0-5.935.904-12.567 3.276-5.266 1.885-2.326 3.109 7.602 3.167l9.686.057v-3.25c0-4.264 3.271-7.65 6.587-6.818 2.809.705 3.139-.181.724-1.947-1.548-1.132-1.366-1.854 2.174-8.61 4.145-7.91 2.303-7.872-2.212.045-3.013 5.284-5.231 8.08-6.408 8.08-.454 0-.947-9.562-1.095-21.25-.149-11.687-.622-20.707-1.053-20.043M369 249.5c0 .825.177 1.5.393 1.5.216 0 .652-.675.969-1.5.316-.825.139-1.5-.393-1.5-.533 0-.969.675-.969 1.5m28.991 3.191c-.004 2.095-.292 6.172-.639 9.059-.535 4.455-.382 5.25 1.009 5.25.901 0 1.639-.702 1.639-1.559s-.45-1.281-1-.941c-.55.34-1-.282-1-1.382 0-1.1.45-2.278 1-2.618.55-.34 1-2.815 1-5.5s-.45-5.16-1-5.5c-.599-.37-1.003.908-1.009 3.191" fill="rgba(99, 102, 241)" fill-rule="evenodd"/></svg>